<svg viewBox="0 0 720 460" xmlns="http://www.w3.org/2000/svg" role="img" aria-label="Illustration of the IamLogic IGA access certification screen">
  <defs>
    <linearGradient id="mock-accent" x1="0" y1="0" x2="1" y2="1">
      <stop offset="0%" stop-color="#5440a4"/>
      <stop offset="100%" stop-color="#3a2a85"/>
    </linearGradient>
    <filter id="mock-shadow" x="-20%" y="-20%" width="140%" height="140%">
      <feDropShadow dx="0" dy="10" stdDeviation="18" flood-color="#1d1443" flood-opacity="0.25"/>
    </filter>
  </defs>
  <rect x="10" y="10" width="700" height="440" rx="14" fill="#ffffff" filter="url(#mock-shadow)"/>
  <rect x="10" y="10" width="700" height="440" rx="14" fill="none" stroke="#e6e3f0"/>
  <path d="M10 24 a14 14 0 0 1 14-14 h672 a14 14 0 0 1 14 14 v22 H10 Z" fill="#1d1443"/>
  <circle cx="34" cy="28" r="5" fill="#7e66d1"/>
  <circle cx="52" cy="28" r="5" fill="#baaeea"/>
  <circle cx="70" cy="28" r="5" fill="#eae6f9" opacity="0.6"/>
  <rect x="240" y="19" width="240" height="18" rx="9" fill="#2e2168"/>
  <circle cx="252" cy="28" r="4" fill="#9a87de"/>
  <rect x="262" y="25" width="150" height="6" rx="3" fill="#5440a4"/>
  <rect x="10" y="46" width="700" height="52" fill="#f7f6fb"/>
  <line x1="10" y1="98" x2="710" y2="98" stroke="#e6e3f0"/>
  <circle cx="42" cy="72" r="10" fill="url(#mock-accent)"/>
  <rect x="60" y="66" width="120" height="12" rx="6" fill="#2e2168"/>
  <rect x="510" y="60" width="176" height="26" rx="13" fill="url(#mock-accent)"/>
  <rect x="540" y="70" width="116" height="6" rx="3" fill="#ffffff" opacity="0.9"/>
  <rect x="34" y="118" width="300" height="16" rx="8" fill="#2e2168"/>
  <rect x="34" y="144" width="200" height="9" rx="4.5" fill="#c9c4dd"/>
  <circle cx="640" cy="150" r="30" fill="none" stroke="#eae6f9" stroke-width="9"/>
  <circle cx="640" cy="150" r="30" fill="none" stroke="url(#mock-accent)" stroke-width="9" stroke-linecap="round" stroke-dasharray="132 189" transform="rotate(-90 640 150)"/>
  <rect x="622" y="144" width="36" height="11" rx="5.5" fill="#2e2168"/>
  <rect x="34" y="170" width="118" height="44" rx="10" fill="#f7f6fb" stroke="#e6e3f0"/>
  <rect x="48" y="182" width="42" height="12" rx="6" fill="#3a2a85"/>
  <rect x="48" y="200" width="76" height="6" rx="3" fill="#a49fc0"/>
  <rect x="164" y="170" width="118" height="44" rx="10" fill="#f7f6fb" stroke="#e6e3f0"/>
  <rect x="178" y="182" width="42" height="12" rx="6" fill="#3a2a85"/>
  <rect x="178" y="200" width="76" height="6" rx="3" fill="#a49fc0"/>
  <rect x="294" y="170" width="118" height="44" rx="10" fill="#f7f6fb" stroke="#e6e3f0"/>
  <rect x="308" y="182" width="42" height="12" rx="6" fill="#3a2a85"/>
  <rect x="308" y="200" width="76" height="6" rx="3" fill="#a49fc0"/>
  <rect x="34" y="232" width="652" height="30" rx="8" fill="#eae6f9"/>
  <rect x="54" y="244" width="70" height="7" rx="3.5" fill="#5440a4"/>
  <rect x="190" y="244" width="90" height="7" rx="3.5" fill="#5440a4"/>
  <rect x="330" y="244" width="90" height="7" rx="3.5" fill="#5440a4"/>
  <rect x="470" y="244" width="70" height="7" rx="3.5" fill="#5440a4"/>
  <rect x="580" y="244" width="80" height="7" rx="3.5" fill="#5440a4"/>
  <line x1="34" y1="298" x2="686" y2="298" stroke="#efedf6"/>
  <circle cx="66" cy="283" r="10" fill="#9a87de"/>
  <rect x="86" y="279" width="80" height="8" rx="4" fill="#2e2168"/>
  <rect x="190" y="279" width="100" height="8" rx="4" fill="#8f8aa8"/>
  <rect x="330" y="279" width="110" height="8" rx="4" fill="#8f8aa8"/>
  <rect x="470" y="274" width="66" height="18" rx="9" fill="#eae6f9"/>
  <rect x="482" y="280" width="42" height="6" rx="3" fill="#5440a4"/>
  <rect x="580" y="272" width="86" height="22" rx="11" fill="#eae6f9"/>
  <path d="M594 283 l4 4 l7 -8" stroke="#3a2a85" stroke-width="2" fill="none" stroke-linecap="round"/>
  <rect x="610" y="280" width="44" height="6" rx="3" fill="#3a2a85"/>
  <line x1="34" y1="332" x2="686" y2="332" stroke="#efedf6"/>
  <circle cx="66" cy="317" r="10" fill="#baaeea"/>
  <rect x="86" y="313" width="80" height="8" rx="4" fill="#2e2168"/>
  <rect x="190" y="313" width="100" height="8" rx="4" fill="#8f8aa8"/>
  <rect x="330" y="313" width="110" height="8" rx="4" fill="#8f8aa8"/>
  <rect x="470" y="308" width="66" height="18" rx="9" fill="#eae6f9"/>
  <rect x="482" y="314" width="42" height="6" rx="3" fill="#5440a4"/>
  <rect x="580" y="306" width="86" height="22" rx="11" fill="#eae6f9"/>
  <path d="M594 317 l4 4 l7 -8" stroke="#3a2a85" stroke-width="2" fill="none" stroke-linecap="round"/>
  <rect x="610" y="314" width="44" height="6" rx="3" fill="#3a2a85"/>
  <line x1="34" y1="366" x2="686" y2="366" stroke="#efedf6"/>
  <circle cx="66" cy="351" r="10" fill="#7e66d1"/>
  <rect x="86" y="347" width="80" height="8" rx="4" fill="#2e2168"/>
  <rect x="190" y="347" width="100" height="8" rx="4" fill="#8f8aa8"/>
  <rect x="330" y="347" width="110" height="8" rx="4" fill="#8f8aa8"/>
  <rect x="470" y="342" width="66" height="18" rx="9" fill="#fde8e8"/>
  <rect x="482" y="348" width="42" height="6" rx="3" fill="#b91c1c"/>
  <rect x="580" y="340" width="40" height="22" rx="11" fill="url(#mock-accent)"/>
  <path d="M593 351 l4 4 l7 -8" stroke="#fff" stroke-width="2" fill="none" stroke-linecap="round"/>
  <rect x="626" y="340" width="40" height="22" rx="11" fill="#ffffff" stroke="#d7d2e6"/>
  <path d="M640 347 l8 8 m0 -8 l-8 8" stroke="#8f8aa8" stroke-width="2" stroke-linecap="round"/>
  <line x1="34" y1="400" x2="686" y2="400" stroke="#efedf6"/>
  <circle cx="66" cy="385" r="10" fill="#d7d0f3"/>
  <rect x="86" y="381" width="80" height="8" rx="4" fill="#2e2168"/>
  <rect x="190" y="381" width="100" height="8" rx="4" fill="#8f8aa8"/>
  <rect x="330" y="381" width="110" height="8" rx="4" fill="#8f8aa8"/>
  <rect x="470" y="376" width="66" height="18" rx="9" fill="#eae6f9"/>
  <rect x="482" y="382" width="42" height="6" rx="3" fill="#5440a4"/>
  <rect x="580" y="374" width="40" height="22" rx="11" fill="url(#mock-accent)"/>
  <path d="M593 385 l4 4 l7 -8" stroke="#fff" stroke-width="2" fill="none" stroke-linecap="round"/>
  <rect x="626" y="374" width="40" height="22" rx="11" fill="#ffffff" stroke="#d7d2e6"/>
  <path d="M640 381 l8 8 m0 -8 l-8 8" stroke="#8f8aa8" stroke-width="2" stroke-linecap="round"/>
  <line x1="34" y1="434" x2="686" y2="434" stroke="#efedf6"/>
  <circle cx="66" cy="419" r="10" fill="#684cc0"/>
  <rect x="86" y="415" width="80" height="8" rx="4" fill="#2e2168"/>
  <rect x="190" y="415" width="100" height="8" rx="4" fill="#8f8aa8"/>
  <rect x="330" y="415" width="110" height="8" rx="4" fill="#8f8aa8"/>
  <rect x="470" y="410" width="66" height="18" rx="9" fill="#eae6f9"/>
  <rect x="482" y="416" width="42" height="6" rx="3" fill="#5440a4"/>
  <rect x="580" y="408" width="40" height="22" rx="11" fill="url(#mock-accent)"/>
  <path d="M593 419 l4 4 l7 -8" stroke="#fff" stroke-width="2" fill="none" stroke-linecap="round"/>
  <rect x="626" y="408" width="40" height="22" rx="11" fill="#ffffff" stroke="#d7d2e6"/>
  <path d="M640 415 l8 8 m0 -8 l-8 8" stroke="#8f8aa8" stroke-width="2" stroke-linecap="round"/>
  <g filter="url(#mock-shadow)">
    <rect x="404" y="330" width="282" height="104" rx="12" fill="#ffffff" stroke="#e6e3f0"/>
    <rect x="404" y="330" width="6" height="104" rx="3" fill="#b91c1c"/>
    <circle cx="432" cy="356" r="10" fill="#fde8e8"/>
    <path d="M432 350 v7 m0 4 v.5" stroke="#b91c1c" stroke-width="2.4" stroke-linecap="round"/>
    <rect x="452" y="348" width="150" height="10" rx="5" fill="#2e2168"/>
    <rect x="452" y="366" width="210" height="7" rx="3.5" fill="#c9c4dd"/>
    <rect x="452" y="380" width="170" height="7" rx="3.5" fill="#c9c4dd"/>
    <rect x="452" y="400" width="90" height="20" rx="10" fill="url(#mock-accent)"/>
    <rect x="470" y="407" width="54" height="6" rx="3" fill="#fff" opacity="0.95"/>
  </g>
</svg>
