<svg viewBox="0 0 720 460" xmlns="http://www.w3.org/2000/svg" role="img" aria-label="Illustration of the Access Manager single sign-on dashboard">
  <defs>
    <linearGradient id="mock-accent" x1="0" y1="0" x2="1" y2="1">
      <stop offset="0%" stop-color="#5440a4"/>
      <stop offset="100%" stop-color="#3a2a85"/>
    </linearGradient>
    <filter id="mock-shadow" x="-20%" y="-20%" width="140%" height="140%">
      <feDropShadow dx="0" dy="10" stdDeviation="18" flood-color="#1d1443" flood-opacity="0.25"/>
    </filter>
  </defs>
  <rect x="10" y="10" width="700" height="440" rx="14" fill="#ffffff" filter="url(#mock-shadow)"/>
  <rect x="10" y="10" width="700" height="440" rx="14" fill="none" stroke="#e6e3f0"/>
  <path d="M10 24 a14 14 0 0 1 14-14 h672 a14 14 0 0 1 14 14 v22 H10 Z" fill="#1d1443"/>
  <circle cx="34" cy="28" r="5" fill="#7e66d1"/>
  <circle cx="52" cy="28" r="5" fill="#baaeea"/>
  <circle cx="70" cy="28" r="5" fill="#eae6f9" opacity="0.6"/>
  <rect x="240" y="19" width="240" height="18" rx="9" fill="#2e2168"/>
  <circle cx="252" cy="28" r="4" fill="#9a87de"/>
  <rect x="262" y="25" width="150" height="6" rx="3" fill="#5440a4"/>
  <rect x="10" y="46" width="150" height="404" fill="#f7f6fb"/>
  <line x1="160" y1="46" x2="160" y2="450" stroke="#e6e3f0"/>
  <circle cx="36" cy="76" r="10" fill="url(#mock-accent)"/>
  <rect x="54" y="70" width="76" height="11" rx="5.5" fill="#2e2168"/>
  <rect x="26" y="118" width="14" height="14" rx="4" fill="#3a2a85"/>
  <rect x="50" y="121" width="80" height="8" rx="4" fill="#3a2a85"/>
  <rect x="26" y="150" width="14" height="14" rx="4" fill="#baaeea"/>
  <rect x="50" y="153" width="62" height="8" rx="4" fill="#c9c4dd"/>
  <rect x="26" y="182" width="14" height="14" rx="4" fill="#baaeea"/>
  <rect x="50" y="185" width="62" height="8" rx="4" fill="#c9c4dd"/>
  <rect x="26" y="214" width="14" height="14" rx="4" fill="#baaeea"/>
  <rect x="50" y="217" width="62" height="8" rx="4" fill="#c9c4dd"/>
  <rect x="26" y="246" width="14" height="14" rx="4" fill="#baaeea"/>
  <rect x="50" y="249" width="62" height="8" rx="4" fill="#c9c4dd"/>
  <rect x="186" y="70" width="200" height="16" rx="8" fill="#2e2168"/>
  <rect x="186" y="96" width="130" height="9" rx="4.5" fill="#c9c4dd"/>
  <rect x="560" y="66" width="126" height="30" rx="15" fill="url(#mock-accent)"/>
  <rect x="580" y="78" width="86" height="7" rx="3.5" fill="#ffffff" opacity="0.9"/>
  <rect x="186" y="128" width="158" height="84" rx="10" fill="#ffffff" stroke="#e6e3f0"/>
  <rect x="200" y="142" width="26" height="26" rx="7" fill="url(#mock-accent)"/>
  <rect x="236" y="146" width="76" height="9" rx="4.5" fill="#2e2168"/>
  <rect x="200" y="180" width="98" height="7" rx="3.5" fill="#d7d2e6"/>
  <circle cx="326" cy="186" r="8" fill="#eae6f9"/>
  <path d="M322 186 l3 3 l5 -6" stroke="#3a2a85" stroke-width="1.8" fill="none" stroke-linecap="round"/>
  <rect x="360" y="128" width="158" height="84" rx="10" fill="#ffffff" stroke="#e6e3f0"/>
  <rect x="374" y="142" width="26" height="26" rx="7" fill="#baaeea"/>
  <rect x="410" y="146" width="76" height="9" rx="4.5" fill="#2e2168"/>
  <rect x="374" y="180" width="98" height="7" rx="3.5" fill="#d7d2e6"/>
  <circle cx="500" cy="186" r="8" fill="#eae6f9"/>
  <path d="M496 186 l3 3 l5 -6" stroke="#3a2a85" stroke-width="1.8" fill="none" stroke-linecap="round"/>
  <rect x="534" y="128" width="158" height="84" rx="10" fill="#ffffff" stroke="#e6e3f0"/>
  <rect x="548" y="142" width="26" height="26" rx="7" fill="#7e66d1"/>
  <rect x="584" y="146" width="76" height="9" rx="4.5" fill="#2e2168"/>
  <rect x="548" y="180" width="98" height="7" rx="3.5" fill="#d7d2e6"/>
  <circle cx="674" cy="186" r="8" fill="#eae6f9"/>
  <path d="M670 186 l3 3 l5 -6" stroke="#3a2a85" stroke-width="1.8" fill="none" stroke-linecap="round"/>
  <rect x="186" y="228" width="158" height="84" rx="10" fill="#ffffff" stroke="#e6e3f0"/>
  <rect x="200" y="242" width="26" height="26" rx="7" fill="#9a87de"/>
  <rect x="236" y="246" width="76" height="9" rx="4.5" fill="#2e2168"/>
  <rect x="200" y="280" width="98" height="7" rx="3.5" fill="#d7d2e6"/>
  <circle cx="326" cy="286" r="8" fill="#eae6f9"/>
  <path d="M322 286 l3 3 l5 -6" stroke="#3a2a85" stroke-width="1.8" fill="none" stroke-linecap="round"/>
  <rect x="360" y="228" width="158" height="84" rx="10" fill="#ffffff" stroke="#e6e3f0"/>
  <rect x="374" y="242" width="26" height="26" rx="7" fill="url(#mock-accent)"/>
  <rect x="410" y="246" width="76" height="9" rx="4.5" fill="#2e2168"/>
  <rect x="374" y="280" width="98" height="7" rx="3.5" fill="#d7d2e6"/>
  <circle cx="500" cy="286" r="8" fill="#eae6f9"/>
  <path d="M496 286 l3 3 l5 -6" stroke="#3a2a85" stroke-width="1.8" fill="none" stroke-linecap="round"/>
  <rect x="534" y="228" width="158" height="84" rx="10" fill="#ffffff" stroke="#e6e3f0"/>
  <rect x="548" y="242" width="26" height="26" rx="7" fill="#7e66d1"/>
  <rect x="584" y="246" width="76" height="9" rx="4.5" fill="#2e2168"/>
  <rect x="548" y="280" width="98" height="7" rx="3.5" fill="#d7d2e6"/>
  <circle cx="674" cy="286" r="8" fill="#eae6f9"/>
  <path d="M670 286 l3 3 l5 -6" stroke="#3a2a85" stroke-width="1.8" fill="none" stroke-linecap="round"/>
  <rect x="186" y="328" width="158" height="84" rx="10" fill="#ffffff" stroke="#e6e3f0"/>
  <rect x="200" y="342" width="26" height="26" rx="7" fill="#9a87de"/>
  <rect x="236" y="346" width="76" height="9" rx="4.5" fill="#2e2168"/>
  <rect x="200" y="380" width="98" height="7" rx="3.5" fill="#d7d2e6"/>
  <circle cx="326" cy="386" r="8" fill="#eae6f9"/>
  <path d="M322 386 l3 3 l5 -6" stroke="#3a2a85" stroke-width="1.8" fill="none" stroke-linecap="round"/>
  <rect x="360" y="328" width="158" height="84" rx="10" fill="#ffffff" stroke="#e6e3f0"/>
  <rect x="374" y="342" width="26" height="26" rx="7" fill="#baaeea"/>
  <rect x="410" y="346" width="76" height="9" rx="4.5" fill="#2e2168"/>
  <rect x="374" y="380" width="98" height="7" rx="3.5" fill="#d7d2e6"/>
  <circle cx="500" cy="386" r="8" fill="#eae6f9"/>
  <path d="M496 386 l3 3 l5 -6" stroke="#3a2a85" stroke-width="1.8" fill="none" stroke-linecap="round"/>
  <rect x="534" y="328" width="158" height="84" rx="10" fill="#ffffff" stroke="#e6e3f0"/>
  <rect x="548" y="342" width="26" height="26" rx="7" fill="url(#mock-accent)"/>
  <rect x="584" y="346" width="76" height="9" rx="4.5" fill="#2e2168"/>
  <rect x="548" y="380" width="98" height="7" rx="3.5" fill="#d7d2e6"/>
  <circle cx="674" cy="386" r="8" fill="#eae6f9"/>
  <path d="M670 386 l3 3 l5 -6" stroke="#3a2a85" stroke-width="1.8" fill="none" stroke-linecap="round"/>
  <g filter="url(#mock-shadow)">
    <rect x="452" y="252" width="236" height="176" rx="14" fill="#ffffff" stroke="#e6e3f0"/>
    <rect x="452" y="252" width="236" height="46" rx="14" fill="#1d1443"/>
    <rect x="452" y="284" width="236" height="14" fill="#1d1443"/>
    <circle cx="478" cy="275" r="11" fill="#7e66d1"/>
    <path d="M474 275 l3 3 l6 -7" stroke="#fff" stroke-width="2" fill="none" stroke-linecap="round"/>
    <rect x="498" y="270" width="120" height="10" rx="5" fill="#ffffff" opacity="0.92"/>
    <rect x="472" y="314" width="150" height="9" rx="4.5" fill="#2e2168"/>
    <rect x="472" y="332" width="180" height="7" rx="3.5" fill="#c9c4dd"/>
    <rect x="472" y="346" width="120" height="7" rx="3.5" fill="#c9c4dd"/>
    <rect x="472" y="364" width="92" height="20" rx="10" fill="#eae6f9"/>
    <circle cx="484" cy="374" r="4" fill="#3a2a85"/>
    <rect x="493" y="371" width="60" height="6" rx="3" fill="#5440a4"/>
    <rect x="472" y="394" width="98" height="24" rx="12" fill="url(#mock-accent)"/>
    <rect x="492" y="403" width="58" height="6" rx="3" fill="#ffffff" opacity="0.95"/>
    <rect x="580" y="394" width="88" height="24" rx="12" fill="#ffffff" stroke="#d7d2e6"/>
    <rect x="600" y="403" width="48" height="6" rx="3" fill="#8f8aa8"/>
  </g>
</svg>
