<svg viewBox="0 0 720 420" xmlns="http://www.w3.org/2000/svg" role="img" aria-label="Diagram: Access Manager and IamLogic IGA operating on one identity fabric">
  <defs>
    <linearGradient id="pd-accent" x1="0" y1="0" x2="1" y2="1">
      <stop offset="0%" stop-color="#5440a4"/>
      <stop offset="100%" stop-color="#3a2a85"/>
    </linearGradient>
  </defs>
  <path d="M200 130 C 280 130 300 190 360 200 M520 130 C 440 130 420 190 360 200 M200 300 C 280 300 300 226 360 210 M520 300 C 440 300 420 226 360 210" stroke="#baaeea" stroke-width="2" stroke-dasharray="5 6" fill="none"/>
  <circle cx="360" cy="205" r="62" fill="url(#pd-accent)"/>
  <circle cx="360" cy="188" r="11" fill="#fff"/>
  <path d="M338 216 c4 -12 13 -18 22 -18 s18 6 22 18" stroke="#fff" stroke-width="7" fill="none" stroke-linecap="round"/>
  <line x1="342" y1="226" x2="378" y2="226" stroke="#fff" stroke-width="6" stroke-linecap="round"/>
  <text x="360" y="292" text-anchor="middle" font-size="15" font-weight="700" fill="#2e2168" font-family="'Source Sans 3', sans-serif">One identity fabric</text>
  <rect x="60" y="88" width="190" height="84" rx="12" fill="#ffffff" stroke="#d7d2e6"/>
  <rect x="60" y="88" width="190" height="8" rx="4" fill="url(#pd-accent)"/>
  <text x="78" y="130" font-size="16" font-weight="700" fill="#1d1443" font-family="'Source Sans 3', sans-serif">Access Manager</text>
  <text x="78" y="152" font-size="12.5" fill="#6b6787" font-family="'Source Sans 3', sans-serif">SSO · MFA · Adaptive auth</text>
  <rect x="470" y="88" width="190" height="84" rx="12" fill="#ffffff" stroke="#d7d2e6"/>
  <rect x="470" y="88" width="190" height="8" rx="4" fill="url(#pd-accent)"/>
  <text x="488" y="130" font-size="16" font-weight="700" fill="#1d1443" font-family="'Source Sans 3', sans-serif">IamLogic IGA</text>
  <text x="488" y="152" font-size="12.5" fill="#6b6787" font-family="'Source Sans 3', sans-serif">Lifecycle · Reviews · SoD</text>
  <rect x="60" y="258" width="190" height="84" rx="12" fill="#ffffff" stroke="#d7d2e6"/>
  <rect x="60" y="258" width="190" height="8" rx="4" fill="url(#pd-accent)"/>
  <text x="78" y="300" font-size="16" font-weight="700" fill="#1d1443" font-family="'Source Sans 3', sans-serif">Your directories</text>
  <text x="78" y="322" font-size="12.5" fill="#6b6787" font-family="'Source Sans 3', sans-serif">AD · LDAP · HRMS</text>
  <rect x="470" y="258" width="190" height="84" rx="12" fill="#ffffff" stroke="#d7d2e6"/>
  <rect x="470" y="258" width="190" height="8" rx="4" fill="url(#pd-accent)"/>
  <text x="488" y="300" font-size="16" font-weight="700" fill="#1d1443" font-family="'Source Sans 3', sans-serif">Your applications</text>
  <text x="488" y="322" font-size="12.5" fill="#6b6787" font-family="'Source Sans 3', sans-serif">SaaS · on-prem · legacy</text>
  <g font-size="11.5" fill="#5440a4" font-weight="600" font-family="'Source Sans 3', sans-serif">
    <text x="238" y="168">auth signals</text>
    <text x="420" y="168">governance</text>
  </g>
</svg>
